<?xml version="1.0" encoding="UTF-8"?>
<svg id="Layer_2" data-name="Layer 2" xmlns="http://www.w3.org/2000/svg" viewBox="0 0 829.81 673.85">
  <defs>
    <style>
      .cls-1 {
        fill: none;
        stroke: #4235d4;
        stroke-miterlimit: 10;
        stroke-width: 5px;
      }
    </style>
  </defs>
  <g id="Layer_1-2" data-name="Layer 1">
    <g>
      <path class="cls-1" d="m.14,2.5c276.5.18,553.01.75,829.51,0"/>
      <path class="cls-1" d="m.14,30.37c136.63.48,273.21.67,409.83,1.37,65,.33,129.73-5.8,194.7-5.89,75.03-.11,149.98,5.59,224.98,4.52"/>
      <path class="cls-1" d="m.14,58.24c79.65.02,159.28-4.28,238.93-3.26,53.45.68,106.48,7.73,159.97,7.68,71.1-.07,140.97-15.33,211.9-17.86,73.43-2.62,145.42,13.52,218.7,13.44"/>
      <path class="cls-1" d="m.14,86.11c83.86-.48,168.13-8.92,251.96-5.89,44.84,1.62,88.04,14.52,133.1,14.16,78.71-.63,155.17-26.61,233.4-32.81,71.86-5.7,139.67,22.76,211.05,24.54"/>
      <path class="cls-1" d="m.14,113.98c87.71-.98,177.24-14.21,264.82-8.48,37.01,2.42,68.88,20.95,106.62,20.54,86.07-.92,169.46-37.63,254.58-47.55,71.12-8.29,133.5,31.91,203.49,35.48"/>
      <path class="cls-1" d="m.14,141.84c49.91-.67,99.72-3.83,149.54-6.58,40.99-2.27,84.21-7.62,125.26-3.92,15.83,1.43,25.92,6.2,38.98,14.2,14.58,8.93,30.25,11.42,47.37,11.24,41.53-.44,83.66-13.84,123.51-24.22,48.67-12.68,97.42-27.77,147.35-34.65,71.56-9.86,127.89,39.57,197.51,43.94"/>
      <path class="cls-1" d="m.14,169.71c50.74-.49,101.37-4.07,152.01-7.1,41.53-2.49,85.49-8.12,127.12-4.34,15.92,1.44,22.75,5.63,33.9,15.48,12.57,11.11,27.73,12.15,44.27,11.98,42.49-.44,85.11-14.5,125.7-25.74,50.02-13.85,100.28-30.78,151.86-37.8,72.49-9.86,124.6,44.14,194.65,47.53"/>
      <path class="cls-1" d="m.14,197.58c49.07-.19,97.93-4.51,146.83-8.23,40.31-3.07,83.2-8.87,123.68-5.21,17.42,1.57,26.9,7.59,39.74,18.32,14.21,11.86,29.66,14.05,47.95,13.76,93.26-1.47,181.69-49.67,273.56-62.18,71.28-9.71,128.32,39.2,197.75,43.55"/>
      <path class="cls-1" d="m.14,225.45c45.39-.43,90.31-5.85,135.38-10.73,37.59-4.07,78.46-10.83,116.35-6.68,21.03,2.3,34.89,11.97,51.41,23.98,17.69,12.86,35.18,18.44,57.21,18.26,90.23-.74,176.01-47.49,264.9-59.24,70.83-9.37,134.44,30.99,204.26,34.42"/>
      <path class="cls-1" d="m.14,253.32c40.79-.87,80.62-7.56,120.83-13.91,34.22-5.4,72.34-13.2,107.09-8.45,50.88,6.96,81.68,54.7,135.18,55.14,86.25.71,168.96-44.83,253.94-55.52,71.52-9,141.22,21.15,212.47,22.75"/>
      <path class="cls-1" d="m.14,281.19c67.17-2.32,137.1-38.08,204.23-27.29,59.63,9.58,99.25,66.6,161.61,67.98,82.35,1.82,161.86-42.16,243.03-51.82,73.09-8.7,147.39,11.34,220.64,11.13"/>
      <path class="cls-1" d="m.14,309.06c62.13-2.55,123.31-41.84,185.79-31.2,66.48,11.32,112.84,76,182.14,77.96,79.41,2.25,156.23-39.97,234.53-48.93,74.65-8.54,152.04,3.26,227.04,2.18"/>
      <path class="cls-1" d="m.14,336.93c60.67-1.99,116.43-43.2,177.75-33.09,69.52,11.46,118.73,80.65,191.02,82.27,78.25,1.75,153.64-38.8,230.8-47.67,34.99-4.02,71.34-1.52,106.52-1.52h123.42"/>
      <path class="cls-1" d="m.14,364.8c58.73-3.19,119.57-38.1,178.44-27.52,67.79,12.18,123.64,71.26,193.69,73.11,35.05.93,72.07-9.6,106.13-16.67,40.74-8.46,81.44-18.17,122.82-22.98,34.97-4.06,70.95-1.81,106.14-3.17,40.78-1.58,81.47-3.43,122.29-2.78"/>
      <path class="cls-1" d="m.14,392.66c59.28-2.2,121.5-22.96,180.68-15.33,68.21,8.8,130.53,50.4,199.86,51.92,74.56,1.63,150.42-16.26,224.73-21.39,34.91-2.41,69.63-2.26,104.51-6.08,39.94-4.38,79.47-9.25,119.73-9.12"/>
      <path class="cls-1" d="m.14,420.53c61.02-.04,122.74-2.72,183.7.22,69.82,3.38,137.76,23.57,207.81,24.64,73.08,1.11,146.23,1.69,219.33,2.03,74.55.35,144.59-25.07,218.68-26.89"/>
      <path class="cls-1" d="m.14,448.4c62.61,2.23,123.94,17.69,186.73,15.85,71.66-2.11,144.12-3.59,215.8-2.77,71.65.82,142.59,19.74,213.89,25.56,74.38,6.07,139.79-34.74,213.09-38.64"/>
      <path class="cls-1" d="m.14,476.27c64.02,3.43,124.46,33.18,189.02,28.26,73.54-5.6,148.27-25.15,222.09-24.36,71.11.76,139.55,34.67,209.6,44.15,74.28,10.05,136.15-43.14,208.8-48.05"/>
      <path class="cls-1" d="m.14,504.14c65.61,2.29,123.34,38.58,189.79,34.2,75.52-4.99,148.99-35.04,224.95-34.19,72.15.81,136.92,43.02,207.62,52.74,75.64,10.39,133.6-48.88,207.14-52.75"/>
      <path class="cls-1" d="m.14,532.01c65.7,2.88,125.81,36.28,192.18,31.77,74.47-5.06,147.71-32.82,222.57-31.77,70.99.99,136.33,39.36,206.03,48.92,74.34,10.19,136.08-44,208.73-48.92"/>
      <path class="cls-1" d="m.14,559.88c66.98,2.39,130.71,29.44,198.1,25.67,72.43-4.05,143.96-26.49,216.66-25.67,69.01.79,134.08,31.84,202.22,39.51,73.81,8.31,139.79-35.49,212.54-39.51"/>
      <path class="cls-1" d="m.14,587.75c69.1,1.21,136.53,20.09,205.81,17.69,69.86-2.42,138.95-18.11,208.94-17.69,66.71.4,130.98,22.42,197.26,27.26,74.11,5.42,143.89-25.26,217.49-27.26"/>
      <path class="cls-1" d="m.14,615.61c71.4-.05,142.19,10.44,213.65,9.59,67.15-.8,133.91-9.63,201.11-9.59,64.48.04,127.89,12.82,192.24,14.84,74.8,2.35,147.9-14.92,222.52-14.84"/>
      <path class="cls-1" d="m.14,643.48c73.31-.73,146.58,3.16,219.9,3.13,64.97-.02,129.88-2.97,194.85-3.13,62.8-.15,125.43,4.86,188.21,4.9,75.55.04,151.03-6.08,226.54-4.9"/>
      <path class="cls-1" d="m.14,671.35c276.49-.53,553.02-.82,829.51,0"/>
    </g>
  </g>
</svg>