<svg width="918" height="620" viewBox="0 0 918 620" fill="none" xmlns="http://www.w3.org/2000/svg">
<path d="M119.2 168H135.6V6.2H119.2V73.4H27.2V6.2H10.8V168H27.2V89H119.2V168ZM173.68 22H266.08V6.2H157.48V168H266.08V152.4H173.68V88.8L251.48 89.2V73.4H173.68V22ZM371.748 97.4H352.948L391.948 168.2H411.148L371.748 97.4ZM407.748 51.8C407.748 17.8 375.148 6.2 354.748 6.2L287.948 6.39999V168.2H304.548V97.4H316.948H371.748C383.748 95.6 407.748 85.8 407.748 51.8ZM357.948 81H304.548V23H357.948C375.348 23 391.348 34.4 391.348 51.8C391.348 72.4 380.148 81 357.948 81ZM442.039 22H534.439V6.2H425.839V168H534.439V152.4H442.039V88.8L519.839 89.2V73.4H442.039V22Z" fill="black"/>
<path d="M686 168V152.2H534.2V168H601.8V314H618.2V168H686ZM758.103 149C736.903 149 717.903 156.4 704.303 170.2C689.703 185.4 681.903 207 681.903 233.2C681.903 284.4 711.703 317.4 758.103 317.4C794.903 317.4 834.303 295.2 834.303 233.2C834.303 181.2 804.303 149 758.103 149ZM758.103 301C728.703 301 698.303 283.2 698.303 233.2C698.303 184.6 728.703 165.4 758.103 165.4C787.303 165.4 817.703 182.8 817.703 233.2C817.703 276.6 795.503 301 758.103 301Z" fill="black"/>
<path d="M213.2 418H229.6V256.2H213.2V323.4H121.2V256.2H104.8V418H121.2V339H213.2V418ZM267.68 272H360.08V256.2H251.48V418H360.08V402.4H267.68V338.8L345.48 339.2V323.4H267.68V272ZM398.148 256.2H381.948V418H489.548V402.4H398.148V256.2ZM565.517 256.2H499.917V418.2H516.517V351H565.717C600.317 351 618.517 327.2 618.517 304C618.517 280.8 599.917 256.2 565.517 256.2ZM568.717 334.4H516.517V272.6H568.717C584.317 272.6 602.317 283.4 602.317 304C602.317 324.4 584.517 334.4 568.717 334.4Z" fill="black"/>
<path d="M604 418.2L560.8 495.4L517.4 418.2H498.6L552.6 514.6V580.2H569V514.6L623 418.2H604ZM690.384 415C669.184 415 650.184 422.4 636.584 436.2C621.984 451.4 614.184 473 614.184 499.2C614.184 550.4 643.984 583.4 690.384 583.4C727.184 583.4 766.584 561.2 766.584 499.2C766.584 447.2 736.584 415 690.384 415ZM690.384 567C660.984 567 630.584 549.2 630.584 499.2C630.584 450.6 660.984 431.4 690.384 431.4C719.584 431.4 749.984 448.8 749.984 499.2C749.984 542.6 727.784 567 690.384 567ZM892.066 520.2C892.066 548.8 876.466 566.8 844.866 566.8C813.466 566.8 797.666 549 797.666 520.2V418H781.266V517.2C781.266 540 789.066 583.2 844.866 583.2C900.866 583.2 908.666 540 908.666 517.2V418H892.066V520.2Z" fill="black"/>
<path d="M8 475.024C8 469.392 12.928 466.448 19.968 466.448C27.136 466.448 31.424 470.736 31.424 476.432H36.672C36.672 467.536 30.272 461.2 19.968 461.2C8.96 461.2 2.752 467.216 2.752 474.832C2.752 496.016 33.792 484.56 33.792 499.152C33.792 504.592 30.272 509.84 20.736 509.84C11.904 509.84 6.72 504.08 6.72 498.64H1.472C1.472 506.192 7.808 515.088 20.224 515.088C34.176 515.088 38.976 506.512 38.976 499.792C38.976 478.864 8 490.384 8 475.024ZM70.8345 491.408H64.8185L77.2985 514.064H83.4425L70.8345 491.408ZM82.3545 476.816C82.3545 465.936 71.9225 462.224 65.3945 462.224L44.0185 462.288V514.064H49.3305V491.408H53.2985H70.8345C74.6745 490.832 82.3545 487.696 82.3545 476.816ZM66.4185 486.16H49.3305V467.6H66.4185C71.9865 467.6 77.1065 471.248 77.1065 476.816C77.1065 483.408 73.5225 486.16 66.4185 486.16ZM129.104 495.12C127.056 504.592 120.464 509.84 110.672 509.84C101.328 509.84 91.5995 504.144 91.5995 488.08C91.5995 472.592 101.328 466.384 110.672 466.384C118.224 466.384 126.032 470.032 128.784 479.824H134.16C131.472 468.112 122.896 461.136 110.736 461.136C103.952 461.136 97.8715 463.568 93.5195 467.984C88.8475 472.784 86.3515 479.76 86.3515 488.08C86.3515 504.464 95.8875 515.088 110.736 515.088C120.976 515.088 131.856 509.712 134.48 495.12H129.104ZM19.392 527.136C8.832 527.136 2.688 533.472 2.24 541.408H7.424C8.064 534.624 14.528 532.384 20.608 532.384C27.264 532.384 30.848 536.928 30.848 541.792C30.848 547.04 29.568 551.2 20.096 553.312C8.384 555.936 3.648 557.856 3.648 574.816C3.648 577.76 3.712 577.376 3.712 580H36.864V574.816H8.96C8.96 559.136 13.056 560.352 22.016 558.24C31.552 556.064 36.16 550.944 36.16 542.816C36.16 533.856 30.976 527.136 19.392 527.136ZM60.1425 527.136C47.4065 527.136 40.5585 537.504 40.5585 554.08C40.5585 571.232 47.4705 581.024 60.1425 581.024C72.9425 581.024 79.7265 571.232 79.7265 554.08C79.7265 537.248 72.9425 527.136 60.1425 527.136ZM60.1425 575.776C52.1425 575.776 45.8065 570.4 45.8065 554.08C45.8065 538.208 52.1425 532.384 60.1425 532.384C68.3345 532.384 74.4785 538.08 74.4785 554.08C74.4785 570.336 68.3345 575.776 60.1425 575.776ZM100.08 527.136C89.5195 527.136 83.3755 533.472 82.9275 541.408H88.1115C88.7515 534.624 95.2155 532.384 101.296 532.384C107.952 532.384 111.536 536.928 111.536 541.792C111.536 547.04 110.256 551.2 100.784 553.312C89.0715 555.936 84.3355 557.856 84.3355 574.816C84.3355 577.76 84.3995 577.376 84.3995 580H117.552V574.816H89.6475C89.6475 559.136 93.7435 560.352 102.704 558.24C112.24 556.064 116.847 550.944 116.847 542.816C116.847 533.856 111.664 527.136 100.08 527.136ZM143.198 551.072C143.198 551.072 150.686 550.24 150.686 540.128C150.686 533.664 146.206 527.136 136.286 527.136C128.094 527.136 123.294 532.128 122.782 538.912H127.966C129.118 534.624 131.55 532.384 136.286 532.384C141.918 532.384 145.374 535.008 145.374 541.408C145.374 545.184 142.686 548.064 136.926 548.896V553.504C145.118 554.4 148.51 559.52 148.51 563.936C148.51 570.848 145.118 575.904 138.142 575.904C130.206 575.904 127.07 573.536 125.342 566.496H120.222C120.734 575.584 127.07 581.024 136.734 581.024C147.358 581.024 153.758 575.648 153.758 564.768C153.758 552.16 143.198 551.072 143.198 551.072Z" fill="black"/>
</svg>
